<svg width="48" height="48" viewBox="0 0 48 48" fill="none" xmlns="http://www.w3.org/2000/svg">
<g id="vuesax/linear/cup">
<g id="cup">
<path id="Vector" d="M24.3 33V37.2" stroke="#0052CC" stroke-width="3" stroke-linecap="round" stroke-linejoin="round"/>
<path id="Vector_2" d="M14.3 44H34.3V42C34.3 39.8 32.5 38 30.3 38H18.3C16.1 38 14.3 39.8 14.3 42V44V44Z" stroke="#0052CC" stroke-width="3" stroke-miterlimit="10"/>
<path id="Vector_3" d="M12.3 44H36.3" stroke="#0052CC" stroke-width="3" stroke-linecap="round" stroke-linejoin="round"/>
<path id="Vector_4" d="M24 32C16.26 32 10 25.74 10 18V12C10 7.58 13.58 4 18 4H30C34.42 4 38 7.58 38 12V18C38 25.74 31.74 32 24 32Z" stroke="#0052CC" stroke-width="3" stroke-linecap="round" stroke-linejoin="round"/>
<path id="Vector_5" d="M10.9401 23.3C9.44008 22.82 8.12008 21.94 7.08008 20.9C5.28008 18.9 4.08008 16.5 4.08008 13.7C4.08008 10.9 6.28008 8.69995 9.08008 8.69995H10.3801C9.98008 9.61995 9.78008 10.64 9.78008 11.7V17.7C9.78008 19.7 10.2001 21.58 10.9401 23.3Z" stroke="#0052CC" stroke-width="3" stroke-linecap="round" stroke-linejoin="round"/>
<path id="Vector_6" d="M37.0601 23.3C38.5601 22.82 39.8801 21.94 40.9201 20.9C42.7201 18.9 43.9201 16.5 43.9201 13.7C43.9201 10.9 41.7201 8.69995 38.9201 8.69995H37.6201C38.0201 9.61995 38.2201 10.64 38.2201 11.7V17.7C38.2201 19.7 37.8001 21.58 37.0601 23.3Z" stroke="#0052CC" stroke-width="3" stroke-linecap="round" stroke-linejoin="round"/>
</g>
</g>
</svg>
