<svg width="48" height="48" viewBox="0 0 48 48" fill="none" xmlns="http://www.w3.org/2000/svg">
<g id="vuesax/linear/monitor-mobbile">
<g id="monitor-mobbile">
<path id="Vector" d="M20 33.9001H12.42C5.68 33.9001 4 32.2201 4 25.4801V13.4801C4 6.74006 5.68 5.06006 12.42 5.06006H33.48C40.22 5.06006 41.9 6.74006 41.9 13.4801" stroke="#0052CC" stroke-width="3" stroke-linecap="round" stroke-linejoin="round"/>
<path id="Vector_2" d="M20 42.9399V33.8999" stroke="#0052CC" stroke-width="3" stroke-linecap="round" stroke-linejoin="round"/>
<path id="Vector_3" d="M4 25.8999H20" stroke="#0052CC" stroke-width="3" stroke-linecap="round" stroke-linejoin="round"/>
<path id="Vector_4" d="M13.48 42.9399H20" stroke="#0052CC" stroke-width="3" stroke-linecap="round" stroke-linejoin="round"/>
<path id="Vector_5" d="M44.0001 25.5999V37.0199C44.0001 41.7599 42.8201 42.9399 38.0801 42.9399H30.9801C26.2401 42.9399 25.0601 41.7599 25.0601 37.0199V25.5999C25.0601 20.8599 26.2401 19.6799 30.9801 19.6799H38.0801C42.8201 19.6799 44.0001 20.8599 44.0001 25.5999Z" stroke="#0052CC" stroke-width="3" stroke-linecap="round" stroke-linejoin="round"/>
<path id="Vector_6" d="M34.489 36.5H34.507" stroke="#0052CC" stroke-width="3" stroke-linecap="round" stroke-linejoin="round"/>
</g>
</g>
</svg>
