<svg width="48" height="48" viewBox="0 0 48 48" fill="none" xmlns="http://www.w3.org/2000/svg">
<g id="vuesax/linear/people">
<g id="people">
<g id="Group">
<path id="Vector" d="M35.9999 14.32C35.8799 14.3 35.7399 14.3 35.6199 14.32C32.8599 14.22 30.6599 11.96 30.6599 9.16C30.6599 6.3 32.9599 4 35.8199 4C38.6799 4 40.9799 6.32 40.9799 9.16C40.9599 11.96 38.7599 14.22 35.9999 14.32Z" stroke="#0052CC" stroke-width="3" stroke-linecap="round" stroke-linejoin="round"/>
<path id="Vector_2" d="M33.9399 28.8801C36.6799 29.3401 39.6999 28.8601 41.8199 27.4401C44.6399 25.5601 44.6399 22.4801 41.8199 20.6001C39.6799 19.1801 36.6199 18.7001 33.8799 19.1801" stroke="#0052CC" stroke-width="3" stroke-linecap="round" stroke-linejoin="round"/>
</g>
<g id="Group_2">
<path id="Vector_3" d="M11.94 14.32C12.06 14.3 12.2 14.3 12.32 14.32C15.08 14.22 17.28 11.96 17.28 9.16C17.28 6.3 14.98 4 12.12 4C9.25996 4 6.95996 6.32 6.95996 9.16C6.97996 11.96 9.17996 14.22 11.94 14.32Z" stroke="#0052CC" stroke-width="3" stroke-linecap="round" stroke-linejoin="round"/>
<path id="Vector_4" d="M13.9999 28.8801C11.2599 29.3401 8.23988 28.8601 6.11988 27.4401C3.29988 25.5601 3.29988 22.4801 6.11988 20.6001C8.25988 19.1801 11.3199 18.7001 14.0599 19.1801" stroke="#0052CC" stroke-width="3" stroke-linecap="round" stroke-linejoin="round"/>
</g>
<g id="Group_3">
<path id="Vector_5" d="M23.9999 29.2599C23.8799 29.2399 23.7399 29.2399 23.6199 29.2599C20.8599 29.1599 18.6599 26.8999 18.6599 24.0999C18.6599 21.2399 20.9599 18.9399 23.8199 18.9399C26.6799 18.9399 28.9799 21.2599 28.9799 24.0999C28.9599 26.8999 26.7599 29.1799 23.9999 29.2599Z" stroke="#0052CC" stroke-width="3" stroke-linecap="round" stroke-linejoin="round"/>
<path id="Vector_6" d="M18.1799 35.56C15.3599 37.44 15.3599 40.52 18.1799 42.4C21.3799 44.54 26.6199 44.54 29.8199 42.4C32.6399 40.52 32.6399 37.44 29.8199 35.56C26.6399 33.44 21.3799 33.44 18.1799 35.56Z" stroke="#0052CC" stroke-width="3" stroke-linecap="round" stroke-linejoin="round"/>
</g>
</g>
</g>
</svg>
