<svg width="102" height="48" viewBox="0 0 102 48" fill="none" xmlns="http://www.w3.org/2000/svg">
<g id="FieldX" clip-path="url(#clip0_4_1864)">
<g id="Group">
<g id="Group 34034">
<path id="Vector" d="M72.3549 27.5649L74.7139 24.5926L75.1713 24.0162L74.8062 23.3598L73.2144 20.4942C72.6851 19.5383 72.1456 18.5865 71.6103 17.6347C71.0749 16.6829 70.5374 15.7311 69.9918 14.7834C69.7477 14.3588 69.5056 13.9342 69.2615 13.5075L69.6185 13.5014L71.8154 13.4583L74.0123 13.407L75.7251 13.3598L77.0503 15.5198L78.6769 18.129L79.1426 18.8778L79.7067 18.2767C80.3262 17.6162 80.9518 16.9598 81.5692 16.2952C82.1887 15.6326 82.8041 14.968 83.4174 14.2993L85.2472 12.2849C85.5528 11.9506 85.8523 11.608 86.1539 11.2696C86.4554 10.9311 86.7569 10.5906 87.0523 10.246C86.6995 10.5311 86.3487 10.8224 86 11.1116C85.6513 11.4008 85.3005 11.6901 84.9559 11.9855L82.8841 13.7496C82.1969 14.3403 81.5118 14.9352 80.8308 15.5321C80.3672 15.9362 79.9056 16.3424 79.4462 16.7506L78.4103 14.7465L76.9785 12.0265L76.7508 11.5957L76.2113 11.5814L74.0144 11.5198L71.8174 11.4685L69.6205 11.4255L67.4236 11.3906L65.6164 11.3619L66.4862 12.9865C67.0031 13.9506 67.5344 14.9044 68.0574 15.8644C68.5805 16.8244 69.1118 17.7803 69.6431 18.7342C70.1744 19.6901 70.7015 20.6459 71.241 21.5957L72.4923 23.8131L70.6441 26.2357L68.361 29.2675C66.8492 31.2962 65.3415 33.329 63.8585 35.3803C62.3713 37.4275 60.9005 39.489 59.4503 41.5669C58.7241 42.6049 58.0041 43.6469 57.2944 44.6972C56.5805 45.7434 55.8749 46.7977 55.1836 47.8623C56.0472 46.931 56.8944 45.9875 57.7333 45.0377C58.5785 44.0921 59.4113 43.1382 60.24 42.1803C61.8974 40.2644 63.5344 38.3341 65.1549 36.3875C66.7774 34.4449 68.3795 32.4859 69.9733 30.5208L72.3549 27.5649Z" fill="#0052CC"/>
<path id="Vector_2" d="M99.0826 2.82453C98.2374 3.77018 97.4046 4.72402 96.5759 5.68197C94.9184 7.59787 93.2815 9.52812 91.661 11.4748C90.0385 13.4174 88.4364 15.3763 86.8426 17.3415L84.4631 20.2994L82.1041 23.2718L81.6467 23.8482L82.0118 24.5046L83.6036 27.3703C84.1328 28.3262 84.6723 29.278 85.2077 30.2298C85.7431 31.1816 86.2805 32.1334 86.8261 33.081C87.0702 33.5057 87.3123 33.9303 87.5564 34.3569L87.1995 34.3631L85.0026 34.4062L82.8056 34.4575L81.0928 34.5046L79.7677 32.3446L78.141 29.7354L77.6754 28.9867L77.1113 29.5877C76.4918 30.2482 75.8661 30.9046 75.2487 31.5693C74.6292 32.2318 74.0138 32.8964 73.4005 33.5652L71.5708 35.5795C71.2651 35.9139 70.9656 36.2564 70.6641 36.5949C70.3625 36.9334 70.061 37.2739 69.7656 37.6185C70.1184 37.3334 70.4692 37.0421 70.8179 36.7528C71.1667 36.4636 71.5174 36.1744 71.862 35.879L73.9338 34.1149C74.621 33.5241 75.3061 32.9293 75.9872 32.3323C76.4508 31.9282 76.9123 31.5221 77.3718 31.1139L78.4077 33.118L79.8395 35.838L80.0672 36.2687L80.6067 36.2831L82.8036 36.3446L85.0005 36.3959L87.1974 36.439L89.3943 36.4739L91.2015 36.5026L90.3318 34.878C89.8149 33.9139 89.2836 32.96 88.7605 32C88.2374 31.04 87.7061 30.0841 87.1749 29.1303C86.6436 28.1744 86.1164 27.2185 85.5769 26.2687L84.3256 24.0534L86.1738 21.6308L88.4569 18.5989C89.9687 16.5702 91.4764 14.5374 92.9595 12.4861C94.4467 10.4389 95.9174 8.37736 97.3677 6.29941C98.0938 5.26146 98.8138 4.21941 99.5236 3.16915C100.237 2.123 100.943 1.06864 101.634 0.00402832C100.769 0.931208 99.9215 1.8748 99.0826 2.82453Z" fill="#0052CC"/>
</g>
<path id="Vector_3" d="M0 32.5619V13.2697H13.3908V17.2614H5.23487V21.3967H12.2626V25.4172H5.23487V32.5619H0Z" fill="#0B2E4E"/>
<path id="Vector_4" d="M15.791 16.0165V12.4596H20.7079V16.0165H15.791ZM15.8505 32.5621V18.1293H20.6526L20.71 32.5621H15.8505Z" fill="#0B2E4E"/>
<path id="Vector_5" d="M30.3972 32.9949C28.8936 32.9949 27.5664 32.6913 26.4197 32.0841C25.2731 31.4769 24.3808 30.6093 23.7449 29.4811C23.109 28.3528 22.791 27.0175 22.791 25.4749C22.791 22.9108 23.4372 20.9149 24.7295 19.4873C26.0218 18.0596 27.8823 17.3478 30.311 17.3478C31.9315 17.3478 33.2423 17.6944 34.2454 18.3898C35.2484 19.0832 35.991 20.115 36.4731 21.4852C36.9551 22.8554 37.1869 24.5313 37.1664 26.5169H26.1182L25.5397 23.5959H33.1172L32.5387 25.1569C32.5202 23.5959 32.3213 22.5005 31.9459 21.8749C31.5705 21.2493 30.949 20.9354 30.0813 20.9354C29.6177 20.9354 29.1951 21.0646 28.8095 21.3252C28.4238 21.5857 28.1202 22.0041 27.8987 22.5826C27.6772 23.161 27.5664 23.9426 27.5664 24.9252C27.5664 26.2564 27.8802 27.2739 28.5059 27.9775C29.1315 28.6811 30.1695 29.0339 31.6156 29.0339C32.1367 29.0339 32.6577 28.9723 33.1767 28.8452C33.6977 28.72 34.1838 28.5703 34.6372 28.3959C35.0905 28.2216 35.4618 28.0882 35.751 27.9918V32.041C35.0761 32.2913 34.309 32.5128 33.4515 32.7057C32.59 32.8985 31.5726 32.9949 30.3972 32.9949Z" fill="#0B2E4E"/>
<path id="Vector_6" d="M43.9926 32.5621H39.25V12.3734H43.9926V32.5621Z" fill="#0B2E4E"/>
<path id="Vector_7" d="M54.1441 32.995C52.8907 32.995 51.7666 32.8657 50.7738 32.6052C49.781 32.3447 48.9379 31.916 48.2425 31.317C47.5492 30.7201 47.0138 29.9139 46.6364 28.9027C46.261 27.8914 46.0723 26.6237 46.0723 25.0996C46.0723 22.7098 46.661 20.8186 47.8364 19.4298C49.0118 18.0411 50.7861 17.3478 53.1574 17.3478C53.4282 17.3478 53.8036 17.3724 54.2856 17.4196C54.7677 17.4688 55.2784 17.5878 55.8179 17.7806C56.3574 17.9734 56.8497 18.3201 57.2928 18.8226L56.3964 20.3262V11.8811H61.1102V28.4822C61.1102 29.2145 60.9215 29.8606 60.5461 30.4206C60.1707 30.9806 59.6538 31.4524 58.9994 31.838C58.343 32.2237 57.5964 32.5129 56.7574 32.7057C55.9184 32.8986 55.0487 32.995 54.1441 32.995ZM54.3164 29.0319C54.9523 29.0319 55.4589 28.9457 55.8343 28.7714C56.2097 28.597 56.3984 28.3283 56.3984 27.9611V21.7129C56.0907 21.5386 55.7707 21.4093 55.4446 21.3232C55.1164 21.237 54.7882 21.1939 54.462 21.1939C53.6907 21.1939 53.0343 21.3088 52.4948 21.5406C51.9553 21.7724 51.5492 22.1827 51.2805 22.7693C51.0097 23.358 50.8764 24.1909 50.8764 25.2719C50.8764 26.0821 50.9912 26.7673 51.223 27.3252C51.4548 27.8852 51.8261 28.3078 52.3369 28.597C52.8456 28.8883 53.5061 29.0319 54.3164 29.0319Z" fill="#0B2E4E"/>
</g>
</g>
<defs>
<clipPath id="clip0_4_1864">
<rect width="101.744" height="48" fill="white"/>
</clipPath>
</defs>
</svg>
