<svg width="40" height="40" viewBox="0 0 40 40" fill="none" xmlns="http://www.w3.org/2000/svg">
<g id="001-facebook" clip-path="url(#clip0_4_1760)">
<path id="Vector" d="M40 20.001C40 8.9541 31.0469 0.000976562 20 0.000976562C8.95312 0.000976562 0 8.9541 0 20.001C0 31.0479 8.95312 40.001 20 40.001C20.1172 40.001 20.2344 40.001 20.3516 39.9932V24.4307H16.0547V19.4229H20.3516V15.7354C20.3516 11.4619 22.9609 9.13379 26.7734 9.13379C28.6016 9.13379 30.1719 9.2666 30.625 9.3291V13.7979H28C25.9297 13.7979 25.5234 14.7822 25.5234 16.2275V19.415H30.4844L29.8359 24.4229H25.5234V39.2275C33.8828 36.8291 40 29.1338 40 20.001Z" fill="white"/>
</g>
<defs>
<clipPath id="clip0_4_1760">
<rect width="40" height="40" fill="white" transform="translate(0 0.000976562)"/>
</clipPath>
</defs>
</svg>
