<svg width="136" height="64" viewBox="0 0 136 64" fill="none" xmlns="http://www.w3.org/2000/svg">
<g id="FieldX" clip-path="url(#clip0_4_1763)">
<g id="Group">
<path id="Vector" d="M96.4732 36.755L99.6185 32.7919L100.228 32.0234L99.7415 31.1482L97.6192 27.3274C96.9135 26.0528 96.1942 24.7838 95.4804 23.5147C94.7665 22.2456 94.0499 20.9766 93.3224 19.713C92.9969 19.1468 92.6742 18.5807 92.3487 18.0118L92.8246 18.0036L95.7539 17.9462L98.6831 17.8778L100.967 17.8149L102.734 20.6949L104.903 24.1739L105.523 25.1721L106.276 24.3708C107.102 23.4901 107.936 22.6149 108.759 21.7287C109.585 20.8453 110.405 19.9592 111.223 19.0675L113.663 16.3817C114.07 15.9359 114.47 15.4792 114.872 15.0279C115.274 14.5766 115.676 14.1226 116.07 13.6631C115.599 14.0433 115.132 14.4316 114.667 14.8173C114.202 15.2029 113.734 15.5886 113.275 15.9824L110.512 18.3345C109.596 19.1222 108.682 19.9154 107.774 20.7113C107.156 21.2501 106.541 21.7916 105.928 22.3359L104.547 19.6638L102.638 16.0371L102.334 15.4627L101.615 15.4436L98.6858 15.3615L95.7566 15.2932L92.8274 15.2357L89.8981 15.1892L87.4886 15.1509L88.6482 17.3171C89.3374 18.6026 90.0458 19.8744 90.7433 21.1544C91.4407 22.4344 92.1491 23.7089 92.8574 24.9807C93.5658 26.2552 94.2687 27.5297 94.988 28.796L96.6564 31.7526L94.1921 34.9827L91.148 39.0251C89.1323 41.73 87.1221 44.4405 85.1446 47.1755C83.1617 49.9051 81.2007 52.6538 79.267 55.4244C78.2988 56.8083 77.3388 58.1977 76.3925 59.5981C75.4407 60.9929 74.4998 62.3987 73.5781 63.8182C74.7296 62.5765 75.8592 61.3184 76.9778 60.0521C78.1046 58.7912 79.2151 57.5194 80.32 56.2422C82.5299 53.6876 84.7125 51.114 86.8732 48.5184C89.0366 45.9283 91.1727 43.3164 93.2978 40.6962L96.4732 36.755Z" fill="white"/>
<path id="Vector_2" d="M132.111 3.76751C130.984 5.02837 129.873 6.30016 128.769 7.57743C126.559 10.132 124.376 12.7056 122.215 15.3012C120.052 17.8913 117.916 20.5032 115.791 23.1234L112.618 27.0673L109.473 31.0306L108.863 31.7991L109.35 32.6743L111.472 36.4952C112.178 37.7697 112.897 39.0388 113.611 40.3078C114.325 41.5769 115.041 42.8459 115.769 44.1095C116.094 44.6757 116.417 45.2418 116.743 45.8107L116.267 45.8189L113.337 45.8764L110.408 45.9447L108.124 46.0077L106.358 43.1276L104.189 39.6487L103.568 38.6504L102.816 39.4518C101.99 40.3324 101.156 41.2076 100.332 42.0938C99.5063 42.9772 98.6858 43.8634 97.868 44.755L95.4283 47.4408C95.0208 47.8866 94.6215 48.3434 94.2194 48.7947C93.8174 49.2459 93.4153 49.7 93.0215 50.1594C93.4919 49.7793 93.9596 49.3909 94.4246 49.0053C94.8895 48.6196 95.3572 48.234 95.8167 47.8401L98.5791 45.488C99.4953 44.7003 100.409 43.9071 101.317 43.1112C101.935 42.5724 102.55 42.0309 103.163 41.4866L104.544 44.1588L106.453 47.7854L106.757 48.3598L107.476 48.3789L110.405 48.461L113.335 48.5294L116.264 48.5868L119.193 48.6333L121.603 48.6716L120.443 46.5054C119.754 45.22 119.045 43.9482 118.348 42.6682C117.651 41.3882 116.942 40.1136 116.234 38.8418C115.525 37.5673 114.823 36.2928 114.103 35.0265L112.435 32.0726L114.899 28.8425L117.943 24.8C119.959 22.095 121.969 19.3846 123.947 16.6496C125.93 13.92 127.891 11.1713 129.824 8.40067C130.792 7.01674 131.752 5.62734 132.699 4.227C133.651 2.83213 134.591 1.42632 135.513 0.00683594C134.359 1.24308 133.229 2.50119 132.111 3.76751Z" fill="white"/>
<path id="Vector_3" d="M0 43.4173V17.6943H17.8544V23.0167H6.97983V28.5304H16.3501V33.8911H6.97983V43.4173H0Z" fill="white"/>
<path id="Vector_4" d="M21.0547 21.3568V16.6143H27.6106V21.3568H21.0547ZM21.134 43.4176V24.1739H27.5367L27.6133 43.4176H21.134Z" fill="white"/>
<path id="Vector_5" d="M40.5302 43.9947C38.5254 43.9947 36.7558 43.5899 35.227 42.7803C33.6981 41.9707 32.5083 40.8138 31.6605 39.3095C30.8126 37.8053 30.3887 36.0247 30.3887 33.968C30.3887 30.5492 31.2502 27.888 32.9733 25.9845C34.6964 24.0809 37.177 23.1318 40.4153 23.1318C42.576 23.1318 44.3237 23.5941 45.6611 24.5212C46.9986 25.4457 47.9887 26.8214 48.6314 28.6483C49.2741 30.4753 49.5832 32.7099 49.5558 35.3574H34.8249L34.0536 31.4627H44.1569L43.3856 33.5441C43.361 31.4627 43.0957 30.0022 42.5952 29.168C42.0947 28.3338 41.2659 27.9153 40.109 27.9153C39.4909 27.9153 38.9275 28.0877 38.4133 28.435C37.8991 28.7824 37.4943 29.3403 37.1989 30.1116C36.9035 30.8829 36.7558 31.9249 36.7558 33.235C36.7558 35.01 37.1743 36.3666 38.0085 37.3047C38.8427 38.2429 40.2266 38.7133 42.1548 38.7133C42.8495 38.7133 43.5442 38.6312 44.2362 38.4617C44.9309 38.2948 45.5791 38.0952 46.1835 37.8627C46.788 37.6302 47.283 37.4524 47.6687 37.3239V42.7229C46.7688 43.0565 45.7459 43.3519 44.6027 43.609C43.454 43.8661 42.0974 43.9947 40.5302 43.9947Z" fill="white"/>
<path id="Vector_6" d="M58.6555 43.4172H52.332V16.499H58.6555V43.4172Z" fill="white"/>
<path id="Vector_7" d="M72.1921 43.9946C70.521 43.9946 69.0222 43.8223 67.6984 43.4749C66.3746 43.1276 65.2505 42.556 64.3234 41.7573C63.3989 40.9614 62.6851 39.8866 62.1818 38.5382C61.6813 37.1898 61.4297 35.4996 61.4297 33.4674C61.4297 30.2811 62.2146 27.7594 63.7818 25.9077C65.349 24.0561 67.7148 23.1317 70.8765 23.1317C71.2376 23.1317 71.7381 23.1645 72.3808 23.2274C73.0235 23.293 73.7046 23.4517 74.4239 23.7088C75.1432 23.9659 75.7996 24.4281 76.3904 25.0982L75.1952 27.1029V15.8428H81.4803V37.9775C81.4803 38.9539 81.2287 39.8155 80.7282 40.5621C80.2276 41.3088 79.5384 41.9378 78.6659 42.452C77.7907 42.9662 76.7952 43.3519 75.6765 43.609C74.5579 43.866 73.3982 43.9946 72.1921 43.9946ZM72.4218 38.7105C73.2697 38.7105 73.9452 38.5956 74.4458 38.3631C74.9463 38.1307 75.1979 37.7724 75.1979 37.2828V28.9519C74.7876 28.7194 74.361 28.5471 73.9261 28.4322C73.4885 28.3173 73.0509 28.2599 72.616 28.2599C71.5876 28.2599 70.7124 28.4131 69.9931 28.7221C69.2738 29.0312 68.7323 29.5782 68.374 30.3604C68.0129 31.1454 67.8352 32.2558 67.8352 33.6972C67.8352 34.7775 67.9883 35.691 68.2974 36.4349C68.6064 37.1816 69.1015 37.745 69.7825 38.1307C70.4608 38.519 71.3415 38.7105 72.4218 38.7105Z" fill="white"/>
</g>
</g>
<defs>
<clipPath id="clip0_4_1763">
<rect width="135.658" height="64" fill="white" transform="translate(0 0.000976562)"/>
</clipPath>
</defs>
</svg>
