<svg width="40" height="40" viewBox="0 0 40 40" fill="none" xmlns="http://www.w3.org/2000/svg">
<g id="010-linkedin" clip-path="url(#clip0_4_1758)">
<path id="Vector" d="M20 0.000976562C8.95599 0.000976562 0 8.95697 0 20.001C0 31.045 8.95599 40.001 20 40.001C31.044 40.001 40 31.045 40 20.001C40 8.95697 31.044 0.000976562 20 0.000976562ZM14.1882 30.2354H9.31732V15.5811H14.1882V30.2354ZM11.7529 13.5801H11.7212C10.0867 13.5801 9.02954 12.4549 9.02954 11.0486C9.02954 9.61066 10.119 8.5166 11.7853 8.5166C13.4515 8.5166 14.4769 9.61066 14.5087 11.0486C14.5087 12.4549 13.4515 13.5801 11.7529 13.5801ZM31.7517 30.2354H26.8814V22.3957C26.8814 20.4255 26.1761 19.0818 24.4138 19.0818C23.0682 19.0818 22.2668 19.9882 21.9147 20.8631C21.7859 21.1762 21.7545 21.6138 21.7545 22.0518V30.2354H16.8839C16.8839 30.2354 16.9476 16.9559 16.8839 15.5811H21.7545V17.656C22.4017 16.6575 23.5599 15.2372 26.1441 15.2372C29.3488 15.2372 31.7517 17.3316 31.7517 21.8326V30.2354Z" fill="white"/>
</g>
<defs>
<clipPath id="clip0_4_1758">
<rect width="40" height="40" fill="white" transform="translate(0 0.000976562)"/>
</clipPath>
</defs>
</svg>
