<svg width="40" height="40" viewBox="0 0 40 40" fill="none" xmlns="http://www.w3.org/2000/svg">
<g id="013-twitter" clip-path="url(#clip0_4_1756)">
<path id="Vector" d="M20 0.000976562C8.95599 0.000976562 0 8.95697 0 20.001C0 31.045 8.95599 40.001 20 40.001C31.044 40.001 40 31.045 40 20.001C40 8.95697 31.044 0.000976562 20 0.000976562ZM29.1318 15.5948C29.1406 15.7917 29.1449 15.9894 29.1449 16.1881C29.1449 22.2541 24.5276 29.249 16.0837 29.2493H16.084H16.0837C13.4912 29.2493 11.0788 28.4894 9.04724 27.1873C9.40643 27.2297 9.77203 27.2507 10.1422 27.2507C12.2931 27.2507 14.2725 26.5171 15.8438 25.2857C13.8342 25.2485 12.1399 23.9213 11.5552 22.0972C11.835 22.1509 12.1228 22.1802 12.4179 22.1802C12.8369 22.1802 13.2428 22.1238 13.6285 22.0185C11.528 21.598 9.94568 19.7416 9.94568 17.5187C9.94568 17.4979 9.94568 17.4793 9.94629 17.4601C10.5649 17.804 11.2723 18.0109 12.0255 18.0341C10.7928 17.2117 9.9826 15.8057 9.9826 14.213C9.9826 13.3719 10.21 12.584 10.6042 11.9056C12.868 14.6833 16.2512 16.5101 20.0665 16.702C19.9878 16.3657 19.9472 16.0154 19.9472 15.6553C19.9472 13.1211 22.0032 11.0651 24.5383 11.0651C25.8588 11.0651 27.0514 11.6233 27.8891 12.5156C28.9349 12.3093 29.917 11.9272 30.8041 11.4014C30.4608 12.4729 29.7333 13.3719 28.7854 13.9405C29.7141 13.8294 30.5991 13.5831 31.4215 13.2175C30.8072 14.1382 30.0281 14.947 29.1318 15.5948Z" fill="white"/>
</g>
<defs>
<clipPath id="clip0_4_1756">
<rect width="40" height="40" fill="white" transform="translate(0 0.000976562)"/>
</clipPath>
</defs>
</svg>
